HIERARCHY
ROOT RootJoint
{
    OFFSET   0.000000   0.000000   0.000000
    CHANNELS 6 Xposition Yposition Zposition Xrotation Yrotation Zrotation
    JOINT lHip
    {
        OFFSET   0.100000  -0.051395   0.000000
        CHANNELS 3 Xrotation Yrotation Zrotation
        JOINT lKnee
        {
            OFFSET   0.000000  -0.410000   0.000000
            CHANNELS 3 Xrotation Yrotation Zrotation
            JOINT lAnkle
            {
                OFFSET   0.000000  -0.390000   0.000000
                CHANNELS 3 Xrotation Yrotation Zrotation
                JOINT lToeJoint
                {
                    OFFSET   0.000000  -0.050000   0.130000
                    CHANNELS 3 Xrotation Yrotation Zrotation
                    End Site
                    {
                        OFFSET   0.010000   0.002000   0.060000
                    }
                }
            }
        }
    }
    JOINT rHip
    {
        OFFSET  -0.100000  -0.051395   0.000000
        CHANNELS 3 Xrotation Yrotation Zrotation
        JOINT rKnee
        {
            OFFSET   0.000000  -0.410000   0.000000
            CHANNELS 3 Xrotation Yrotation Zrotation
            JOINT rAnkle
            {
                OFFSET   0.000000  -0.390000   0.000000
                CHANNELS 3 Xrotation Yrotation Zrotation
                JOINT rToeJoint
                {
                    OFFSET   0.000000  -0.050000   0.130000
                    CHANNELS 3 Xrotation Yrotation Zrotation
                    End Site
                    {
                        OFFSET  -0.010000   0.002000   0.060000
                    }
                }
            }
        }
    }
    JOINT pelvis_lowerback
    {
        OFFSET   0.000000   0.093605   0.000000
        CHANNELS 3 Xrotation Yrotation Zrotation
        JOINT lowerback_torso
        {
            OFFSET   0.000000   0.100000   0.000000
            CHANNELS 3 Xrotation Yrotation Zrotation
            JOINT torso_head
            {
                OFFSET   0.000000   0.282350   0.000000
                CHANNELS 3 Xrotation Yrotation Zrotation
                End Site
                {
                    OFFSET   0.000000   0.192650   0.000000
                }
            }
            JOINT lTorso_Clavicle
            {
                OFFSET   0.001000   0.157500   0.000000
                CHANNELS 3 Xrotation Yrotation Zrotation
                JOINT lShoulder
                {
                    OFFSET   0.117647   0.000000   0.000000
                    CHANNELS 3 Xrotation Yrotation Zrotation
                    JOINT lElbow
                    {
                        OFFSET   0.245000   0.000000   0.000000
                        CHANNELS 3 Xrotation Yrotation Zrotation
                        JOINT lWrist
                        {
                            OFFSET   0.240000   0.000000   0.000000
                            CHANNELS 3 Xrotation Yrotation Zrotation
                            End Site
                            {
                                OFFSET   0.116353  -0.002500   0.000000
                            }
                        }
                    }
                }
            }
            JOINT rTorso_Clavicle
            {
                OFFSET  -0.001000   0.157500   0.000000
                CHANNELS 3 Xrotation Yrotation Zrotation
                JOINT rShoulder
                {
                    OFFSET  -0.117647   0.000000   0.000000
                    CHANNELS 3 Xrotation Yrotation Zrotation
                    JOINT rElbow
                    {
                        OFFSET  -0.245000   0.000000   0.000000
                        CHANNELS 3 Xrotation Yrotation Zrotation
                        JOINT rWrist
                        {
                            OFFSET  -0.240000   0.000000   0.000000
                            CHANNELS 3 Xrotation Yrotation Zrotation
                            End Site
                            {
                                OFFSET  -0.116353  -0.002500   0.000000
                            }
                        }
                    }
                }
            }
        }
    }
}
MOTION
Frames: 7
Frame Time:   0.010000
  0.000000   0.000000   0.000000   0.000000   0.000000   0.000000   0.000000   0.000000   0.000000   0.000000   0.000000   0.000000   0.000000   0.000000   0.000000   0.000000   0.000000   0.000000   0.000000   0.000000   0.000000   0.000000   0.000000   0.000000   0.000000   0.000000   0.000000   0.000000   0.000000   0.000000   0.000000   0.000000   0.000000   0.000000   0.000000   0.000000   0.000000   0.000000   0.000000   0.000000   0.000000   0.000000   0.000000   0.000000   0.000000   0.000000   0.000000   0.000000   0.000000   0.000000   0.000000   0.000000   0.000000   0.000000   0.000000   0.000000   0.000000   0.000000   0.000000   0.000000   0.000000   0.000000   0.000000
  0.399267   0.305052   0.376828 -21.357034 -77.807281 -19.295753 -97.088578  39.349314  36.775459  86.873800   9.231344  31.331541 -18.480079   2.576951 -25.485766   4.602398  -1.693625  -6.360745 -93.655556 -42.300649 -34.856858  83.846604 -20.533093 -26.338322   1.901940  -4.740923  11.610811   1.154036  -2.425657  -0.655894  14.791701  -6.297306   2.187966  53.963111  -5.155046   9.533066  72.817468 -13.974854   1.315647  -5.422509  -7.859491 -82.696322  82.608054 -84.859175  -6.760393  58.161448 -71.299566  87.849721  45.864395  12.107484 -38.803460  -9.683662  -0.505871  82.695462  40.033944  83.008549  54.218670  67.740335  82.683598 -100.527263  63.456087  11.970266 -31.068916
  0.623969   0.507740   0.417285 -24.181296 -81.744112 -22.109650 -98.996080  43.041432  37.950625  83.689815  19.427496  34.144372  -7.924454   9.191809 -13.009739   2.829083  -7.420452  -5.736411 -102.422791 -51.077999 -44.457030  81.485761 -28.087968 -30.060121   5.531856  -8.770799  29.550742  -5.387939  -0.411229   0.268528  13.913335  -3.339057  -2.517937  55.458036   6.410865   8.148919  78.478089   6.174720  -4.757324 -10.205860 -10.552267 -84.358985  86.091899 -84.620113  -3.557919  58.338463 -70.984718  88.283131  49.799693   9.745589 -41.911062  -4.155095   4.442122  85.586733  39.569477  86.108291  52.833549  69.224255  80.112137 -105.608446  60.704524  20.054469 -23.904759
  0.217187   0.562050   0.394730   0.201798 -75.171621   2.235817 -101.025447  38.261314  46.856779  84.781030  16.649154  33.002809  -9.895657   3.900443 -23.975872   3.403731  -5.703279  -2.565922 -103.467676 -51.863450 -44.601642  81.172995 -28.971312 -29.575590  -0.098854 -18.729815  21.427207  -4.703235  -4.891179  -7.838029  18.568456  -3.001669  -4.472663  54.488377  -1.343004  15.212101  83.834816  20.067570 -24.271597  -7.726422 -14.433699 -84.301416  84.576889 -84.729638  -4.946754  58.763109 -70.277162  89.146316  51.521823   7.041159 -40.138482  -2.493195   2.738164  85.608660  41.798358  85.407082  51.163337  69.377978  78.645537 -106.547160  63.676728  21.226778 -26.075945
  0.371929   0.666194   0.482657   3.129630 -79.751427   1.936398 -97.915948  33.699324  44.132503  84.011075  19.369383  32.962718 -20.319445  -0.857198 -17.902098   7.275350  -6.084062  -5.797483 -102.427915 -43.600527 -49.877091  82.501922 -26.678156 -28.111457  -0.856272 -14.300523  34.534473  -3.253798  -7.416689  -4.601346  13.741343  -2.385791  -3.067629  59.139822   8.309158  13.454778  80.096375  13.096935 -12.024001  -5.920430  -8.770223 -83.934362  86.355354 -84.600282  -3.316907  58.892250 -70.011884  89.478840  54.168402   8.779862 -38.187204  -3.741902   4.987971  85.541849  41.331507  85.219909  51.721024  69.311495  78.893971 -107.617995  66.344842  20.404885 -22.250608
  0.279623   0.560539   0.278737   4.516141 -79.492198   5.841169 -103.613992  42.971588  48.540015  83.757754  17.858258  36.567465 -18.963374  -0.192636 -15.971935   3.861186  -7.856080  -5.030768 -101.861828 -48.884296 -41.811872  82.719575 -25.504393 -29.008863   3.071109 -11.206678  24.679331  -2.662595  -3.258733   2.647601  16.374312  -6.120496   1.419558  61.046837  -5.358445  13.270305  81.322948   4.914927 -14.525822  -9.351006 -16.828695 -84.692477  86.211408 -84.611038  -3.448680  58.709667 -67.107785  94.202074  51.197464   8.762765 -30.377402  -4.236893   5.399260  85.848211  41.732097  85.448352  51.201361  69.634853  78.622784 -107.567870  65.958963  22.727870 -26.256875
  0.626648   0.522080   0.340374  27.844239 -77.591259  32.875844 -99.425877  41.431864  39.736554  85.035449  14.733175  34.735554 -17.352836   5.448694 -17.177137   0.635988  -6.241190  -6.447241 -101.673672 -48.420099 -43.286382  81.901333 -26.047532 -31.177589  -3.176337  -8.195114  18.491705  -8.860555  -4.512807  -3.690353  11.300333  -3.339959  -0.514894  55.927562   1.224523  12.293430  79.415762   6.973182  -3.692437  -9.209860 -10.978870 -84.360866  86.794158 -84.566637  -2.915909  56.830314 -72.673215  86.328585  51.931838  15.861030 -42.792210  -0.390718  -0.118115  85.757979  39.664412  86.329277  52.611118  69.957660  79.594300 -106.704553  65.798151  18.180659 -34.781143
